<?xml version="1.0" encoding="utf-8"?>
<!-- Generator: Adobe Illustrator 15.1.0, SVG Export Plug-In . SVG Version: 6.00 Build 0)  -->
<!DOCTYPE svg PUBLIC "-//W3C//DTD SVG 1.1//EN" "http://www.w3.org/Graphics/SVG/1.1/DTD/svg11.dtd">
<svg version="1.1" id="Layer_1" xmlns="http://www.w3.org/2000/svg" xmlns:xlink="http://www.w3.org/1999/xlink" x="0px" y="0px"
	 width="20px" height="20px" viewBox="0 0 20 20" enable-background="new 0 0 20 20" xml:space="preserve">
<g>
	<g>
		<path fill="#13558F" d="M10.938,10.479c0.859-0.79,1.4-1.933,1.4-3.202c0-2.377-1.898-4.313-4.23-4.313s-4.23,1.935-4.23,4.313
			c0,1.27,0.541,2.412,1.4,3.202c-0.862,0.29-1.681,0.822-2.362,1.556c-1.102,1.184-1.709,2.719-1.709,4.32v0.682H15.01v-0.682
			c0-1.602-0.607-3.137-1.71-4.32C12.619,11.301,11.8,10.769,10.938,10.479z M5.213,7.276c0-1.627,1.298-2.951,2.895-2.951
			c1.596,0,2.895,1.324,2.895,2.951s-1.299,2.95-2.895,2.95C6.511,10.227,5.213,8.903,5.213,7.276z M2.588,15.674
			c0.332-2.379,2.357-4.085,4.184-4.085h2.672c1.827,0,3.853,1.706,4.184,4.085H2.588z M16.791,8.865V6.823h-1.336v2.042h-2.004
			v1.361h2.004v2.043h1.336v-2.043h2.004V8.865H16.791z"/>
	</g>
</g>
</svg>
