<?xml version="1.0" encoding="utf-8"?>
<!-- Generator: Adobe Illustrator 15.1.0, SVG Export Plug-In . SVG Version: 6.00 Build 0)  -->
<!DOCTYPE svg PUBLIC "-//W3C//DTD SVG 1.1//EN" "http://www.w3.org/Graphics/SVG/1.1/DTD/svg11.dtd">
<svg version="1.1" id="Layer_1" xmlns="http://www.w3.org/2000/svg" xmlns:xlink="http://www.w3.org/1999/xlink" x="0px" y="0px"
	 width="22.688px" height="22.688px" viewBox="0 -2.688 22.688 22.688" enable-background="new 0 -2.688 22.688 22.688"
	 xml:space="preserve">
<path fill="#9BACBA" d="M7.24,20c0.912,0,1.66-0.746,1.66-1.656H5.582C5.582,19.254,6.328,20,7.24,20z M12.631,15.029v-4.557
	c0-2.567-1.742-4.639-4.147-5.219v-0.58c0-0.663-0.581-1.243-1.244-1.243c-0.663,0-1.244,0.58-1.244,1.243v0.58
	C3.591,5.834,1.85,7.905,1.85,10.473v4.556l-1.66,1.656v0.83h14.099v-0.83L12.631,15.029z M10.973,15.857H3.508v-5.385
	c0-2.07,1.659-3.728,3.732-3.728c2.073,0,3.732,1.657,3.732,3.728V15.857z"/>
</svg>
