<?xml version="1.0" encoding="utf-8"?>
<!-- Generator: Adobe Illustrator 15.1.0, SVG Export Plug-In . SVG Version: 6.00 Build 0)  -->
<!DOCTYPE svg PUBLIC "-//W3C//DTD SVG 1.1//EN" "http://www.w3.org/Graphics/SVG/1.1/DTD/svg11.dtd">
<svg version="1.1" id="Capa_1" xmlns="http://www.w3.org/2000/svg" xmlns:xlink="http://www.w3.org/1999/xlink" x="0px" y="0px"
	 width="410px" height="300px" viewBox="0.25 0 410 300" enable-background="new 0.25 0 410 300" xml:space="preserve">
<g>
	<path fill="#8C8C8C" d="M223.611,63.315c11.498,0,20.811-9.251,20.811-20.769V20.81c0-11.527-9.303-20.81-20.811-20.81
		c-11.507,0-20.799,9.271-20.799,20.81v21.748C202.822,54.064,212.115,63.315,223.611,63.315z"/>
	<path fill="#8C8C8C" d="M297.538,35.995H255.65v10.58c0,17.461-14.186,31.688-31.678,31.688c-17.514,0-31.668-14.227-31.668-31.688
		v-10.58h-84.527v10.58c0,17.461-14.206,31.688-31.688,31.688c-17.482,0-31.678-14.217-31.678-31.688v-10.58L2.143,35.469V300h21.14
		h253.466l21.109-0.063L297.538,35.995z M276.729,278.933H23.282V109.941h253.466v168.991H276.729z"/>
	<path fill="#8C8C8C" d="M75.76,63.315c11.497,0,20.82-9.251,20.82-20.769V20.81C96.58,9.271,87.257,0,75.76,0
		S54.971,9.271,54.971,20.81v21.748C54.971,54.064,64.252,63.315,75.76,63.315z"/>
	<rect x="107.84" y="132.616" fill="#8C8C8C" width="33.285" height="29.38"/>
	<rect x="161.656" y="132.616" fill="#8C8C8C" width="33.316" height="29.38"/>
	<rect x="211.568" y="132.616" fill="#8C8C8C" width="33.285" height="29.38"/>
	<rect x="107.84" y="181.405" fill="#8C8C8C" width="33.285" height="29.36"/>
	<rect x="161.656" y="181.405" fill="#8C8C8C" width="33.316" height="29.36"/>
	<rect x="211.568" y="181.405" fill="#8C8C8C" width="33.285" height="29.36"/>
	<rect x="107.84" y="231.163" fill="#8C8C8C" width="33.285" height="29.36"/>
	<rect x="54.971" y="181.405" fill="#8C8C8C" width="33.265" height="29.36"/>
	<rect x="54.971" y="231.163" fill="#8C8C8C" width="33.265" height="29.36"/>
	<rect x="161.656" y="231.163" fill="#8C8C8C" width="33.316" height="29.36"/>
	<rect x="211.568" y="231.163" fill="#8C8C8C" width="33.285" height="29.36"/>
</g>
</svg>
