<?xml version="1.0" encoding="utf-8"?>
<!-- Generator: Adobe Illustrator 15.1.0, SVG Export Plug-In . SVG Version: 6.00 Build 0)  -->
<!DOCTYPE svg PUBLIC "-//W3C//DTD SVG 1.1//EN" "http://www.w3.org/Graphics/SVG/1.1/DTD/svg11.dtd">
<svg version="1.1" id="Layer_1" xmlns="http://www.w3.org/2000/svg" xmlns:xlink="http://www.w3.org/1999/xlink" x="0px" y="0px"
	 width="18px" height="18px" viewBox="0 0 18 18" enable-background="new 0 0 18 18" xml:space="preserve">
<path fill="#FFFFFF" d="M15.642,10.499c-0.188-2.427-1.319-3.949-2.317-5.291c-0.925-1.242-1.724-2.315-1.724-3.898
	c0-0.127-0.071-0.243-0.185-0.302s-0.25-0.049-0.353,0.026c-1.5,1.071-2.751,2.877-3.188,4.6c-0.304,1.2-0.344,2.548-0.349,3.439
	C6.141,8.777,5.827,6.709,5.824,6.687C5.808,6.579,5.742,6.486,5.647,6.435c-0.097-0.05-0.21-0.054-0.308-0.006
	c-0.072,0.035-1.782,0.903-1.882,4.367c-0.007,0.115-0.007,0.23-0.007,0.346c0,3.365,2.742,6.104,6.113,6.104
	c0.005,0,0.01,0.001,0.014,0c0.002,0,0.003,0,0.004,0c3.363-0.01,6.096-2.744,6.096-6.104
	C15.676,10.973,15.642,10.499,15.642,10.499z M9.563,16.566c-1.124,0-2.038-0.972-2.038-2.167c0-0.04,0-0.082,0.003-0.132
	c0.014-0.504,0.109-0.848,0.214-1.077c0.197,0.423,0.549,0.812,1.122,0.812c0.188,0,0.339-0.152,0.339-0.339
	c0-0.483,0.01-1.04,0.13-1.543c0.107-0.445,0.364-0.92,0.688-1.3c0.144,0.493,0.425,0.893,0.7,1.282
	c0.393,0.558,0.799,1.134,0.87,2.117c0.005,0.059,0.009,0.117,0.009,0.18C11.601,15.595,10.687,16.566,9.563,16.566z"/>
</svg>
