<?xml version="1.0" encoding="utf-8"?>
<!-- Generator: Adobe Illustrator 15.1.0, SVG Export Plug-In . SVG Version: 6.00 Build 0)  -->
<!DOCTYPE svg PUBLIC "-//W3C//DTD SVG 1.1//EN" "http://www.w3.org/Graphics/SVG/1.1/DTD/svg11.dtd">
<svg version="1.1" id="Layer_1" xmlns="http://www.w3.org/2000/svg" xmlns:xlink="http://www.w3.org/1999/xlink" x="0px" y="0px"
	 width="18px" height="18px" viewBox="0 0 18 18" enable-background="new 0 0 18 18" xml:space="preserve">
<g>
	<g>
		<path fill="#FFFFFF" d="M4.294,6.219c0.574,0,1.063-0.201,1.468-0.602c0.406-0.401,0.609-0.885,0.609-1.453
			s-0.203-1.05-0.608-1.451C5.357,2.311,4.868,2.111,4.294,2.111c-0.573,0-1.063,0.2-1.468,0.602
			C2.421,3.114,2.218,3.598,2.218,4.165s0.203,1.051,0.608,1.453C3.232,6.019,3.721,6.219,4.294,6.219z M6.765,9.425
			c0.608,0.603,1.342,0.903,2.202,0.903c0.86,0,1.594-0.301,2.203-0.903c0.607-0.602,0.912-1.328,0.912-2.179
			s-0.305-1.577-0.912-2.179S9.827,4.165,8.967,4.165c-0.86,0-1.594,0.301-2.202,0.902c-0.609,0.602-0.913,1.329-0.913,2.18
			S6.156,8.824,6.765,9.425z M13.641,6.219c0.572,0,1.063-0.201,1.469-0.602c0.404-0.401,0.607-0.885,0.607-1.453
			s-0.203-1.051-0.607-1.452C14.704,2.31,14.213,2.11,13.641,2.11c-0.574,0-1.063,0.2-1.469,0.602
			c-0.404,0.401-0.607,0.885-0.607,1.452s0.203,1.051,0.607,1.453C12.577,6.019,13.066,6.219,13.641,6.219z M15.749,6.219
			c-0.032,0-0.149,0.057-0.353,0.168C15.193,6.5,14.93,6.614,14.605,6.729c-0.326,0.115-0.646,0.172-0.967,0.172
			c-0.361,0-0.722-0.062-1.078-0.185c0.026,0.198,0.041,0.375,0.041,0.53c0,0.744-0.22,1.428-0.658,2.054
			c0.877,0.027,1.594,0.369,2.15,1.027h1.088c0.442,0,0.815-0.108,1.118-0.325c0.304-0.217,0.454-0.534,0.454-0.95
			C16.755,7.164,16.42,6.219,15.749,6.219z M14.537,12.707c-0.059-0.313-0.129-0.604-0.217-0.87
			c-0.086-0.269-0.201-0.528-0.348-0.782s-0.313-0.471-0.504-0.65c-0.189-0.178-0.421-0.321-0.693-0.43
			c-0.272-0.105-0.574-0.16-0.903-0.16c-0.056,0-0.171,0.059-0.351,0.174c-0.178,0.115-0.375,0.242-0.592,0.385
			s-0.506,0.271-0.867,0.385C9.7,10.872,9.335,10.93,8.968,10.93c-0.368,0-0.733-0.058-1.095-0.173
			c-0.363-0.114-0.652-0.243-0.868-0.385c-0.217-0.142-0.414-0.271-0.592-0.386c-0.18-0.114-0.296-0.172-0.35-0.172
			c-0.33,0-0.631,0.054-0.904,0.16c-0.273,0.106-0.504,0.25-0.694,0.43c-0.189,0.18-0.357,0.396-0.503,0.65
			c-0.146,0.254-0.262,0.514-0.349,0.782c-0.086,0.267-0.158,0.558-0.215,0.87s-0.095,0.604-0.114,0.875s-0.029,0.548-0.029,0.831
			c0,0.642,0.198,1.147,0.592,1.521c0.395,0.371,0.919,0.559,1.574,0.559h7.09c0.654,0,1.179-0.188,1.573-0.559
			c0.396-0.371,0.593-0.879,0.593-1.521c0-0.283-0.01-0.562-0.028-0.831C14.631,13.313,14.594,13.021,14.537,12.707z M5.99,9.301
			C5.552,8.675,5.333,7.99,5.333,7.247c0-0.155,0.014-0.332,0.041-0.53C5.017,6.84,4.657,6.901,4.294,6.901
			c-0.319,0-0.641-0.057-0.965-0.172C3.005,6.614,2.741,6.5,2.538,6.388C2.335,6.276,2.218,6.22,2.185,6.22
			c-0.671,0-1.006,0.944-1.006,2.833c0,0.417,0.152,0.733,0.455,0.95c0.303,0.218,0.676,0.325,1.119,0.325H3.84
			C4.397,9.67,5.114,9.328,5.99,9.301z"/>
	</g>
</g>
</svg>
