<?xml version="1.0" encoding="utf-8"?>
<!-- Generator: Adobe Illustrator 15.1.0, SVG Export Plug-In . SVG Version: 6.00 Build 0)  -->
<!DOCTYPE svg PUBLIC "-//W3C//DTD SVG 1.1//EN" "http://www.w3.org/Graphics/SVG/1.1/DTD/svg11.dtd">
<svg version="1.1" id="Layer_1" xmlns="http://www.w3.org/2000/svg" xmlns:xlink="http://www.w3.org/1999/xlink" x="0px" y="0px"
	 width="18px" height="18px" viewBox="0 0 18 18" enable-background="new 0 0 18 18" xml:space="preserve">
<g>
	<g>
		<path fill-rule="evenodd" clip-rule="evenodd" fill="#FFFFFF" d="M6.893,10.29H2.875c-0.701,0-1.271,0.57-1.271,1.271v4.018
			c0,0.702,0.57,1.272,1.271,1.272h4.018c0.701,0,1.272-0.57,1.272-1.272v-4.018C8.165,10.86,7.594,10.29,6.893,10.29z
			 M6.663,15.092c0,0.14-0.113,0.253-0.253,0.253H3.366c-0.14,0-0.253-0.113-0.253-0.253v-3.044c0-0.139,0.113-0.253,0.253-0.253
			h3.043c0.14,0,0.253,0.114,0.253,0.253V15.092z M15.329,10.29h-4.018c-0.701,0-1.271,0.57-1.271,1.271v4.018
			c0,0.702,0.57,1.272,1.271,1.272h4.018c0.702,0,1.272-0.57,1.272-1.272v-4.018C16.602,10.86,16.031,10.29,15.329,10.29z
			 M15.309,15.273c0,0.158-0.128,0.284-0.284,0.284h-3.409c-0.156,0-0.283-0.126-0.283-0.284v-3.408
			c0-0.156,0.127-0.283,0.283-0.283h3.409c0.156,0,0.284,0.127,0.284,0.283V15.273z M15.329,1.854h-4.018
			c-0.701,0-1.271,0.57-1.271,1.272v4.017c0,0.702,0.57,1.272,1.271,1.272h4.018c0.702,0,1.272-0.571,1.272-1.272V3.126
			C16.602,2.424,16.031,1.854,15.329,1.854z M13.38,7.324c-1.147,0-2.077-0.93-2.077-2.077s0.93-2.077,2.077-2.077
			s2.077,0.93,2.077,2.077S14.527,7.324,13.38,7.324z M4.951,1.703c-1.953,0-3.536,1.583-3.536,3.535
			c0,1.953,1.583,3.536,3.536,3.536c1.953,0,3.537-1.583,3.537-3.536C8.487,3.286,6.904,1.703,4.951,1.703z"/>
	</g>
</g>
</svg>
