<?xml version="1.0" encoding="utf-8"?>
<!-- Generator: Adobe Illustrator 15.1.0, SVG Export Plug-In . SVG Version: 6.00 Build 0)  -->
<!DOCTYPE svg PUBLIC "-//W3C//DTD SVG 1.1//EN" "http://www.w3.org/Graphics/SVG/1.1/DTD/svg11.dtd">
<svg version="1.1" id="Layer_1" xmlns="http://www.w3.org/2000/svg" xmlns:xlink="http://www.w3.org/1999/xlink" x="0px" y="0px"
	 width="18px" height="18px" viewBox="0 0 18 18" enable-background="new 0 0 18 18" xml:space="preserve">
<g>
	<g>
		<path fill="#13558F" d="M13.955,3.73h-2.003V2.429c0-0.262-0.212-0.465-0.474-0.465c-0.025,0-0.042,0.009-0.051,0.017
			c-0.008-0.008-0.025-0.017-0.034-0.017H6.619c-0.262,0-0.465,0.203-0.465,0.465V3.73H4.143c-0.575,0-1.023,0.448-1.023,1.022
			v2.204h0.887v8.991c0,0.574,0.439,1.014,1.015,1.014h8.055c0.574,0,1.022-0.439,1.022-1.014V6.957h0.879V4.753
			C14.978,4.178,14.529,3.73,13.955,3.73z M7.083,2.894h3.93V3.73h-3.93V2.894z M13.16,15.948c0,0.059-0.025,0.084-0.084,0.084
			H5.021c-0.059,0-0.085-0.025-0.085-0.084V6.957h8.224V15.948z M14.039,5.93H4.058V5.187c0-0.059,0.025-0.093,0.085-0.093h9.813
			c0.059,0,0.084,0.034,0.084,0.093V5.93z M11.971,7.986h-0.938v7.001h0.938V7.986z M6.925,7.986H5.987v7.001h0.938V7.986z
			 M9.471,7.986H8.533v7.001h0.938V7.986z"/>
	</g>
</g>
</svg>
