<?xml version="1.0" encoding="utf-8"?>
<!-- Generator: Adobe Illustrator 15.1.0, SVG Export Plug-In . SVG Version: 6.00 Build 0)  -->
<!DOCTYPE svg PUBLIC "-//W3C//DTD SVG 1.1//EN" "http://www.w3.org/Graphics/SVG/1.1/DTD/svg11.dtd">
<svg version="1.1" id="Layer_1" xmlns="http://www.w3.org/2000/svg" xmlns:xlink="http://www.w3.org/1999/xlink" x="0px" y="0px"
	 width="18px" height="18px" viewBox="0 0 18 18" enable-background="new 0 0 18 18" xml:space="preserve">
<g>
	<g>
		<path fill="#FFFFFF" d="M8.431,8.903c0,0.242,0.197,0.439,0.439,0.439c0.142,0,0.275-0.069,0.358-0.186l1.505-2.118L8.616,8.545
			C8.5,8.627,8.431,8.761,8.431,8.903z M9.749,12.916H7.933c-0.243,0-0.439,0.197-0.439,0.439s0.197,0.439,0.439,0.439h1.816
			c0.242,0,0.438-0.197,0.438-0.439S9.991,12.916,9.749,12.916z M8.87,1.434c-4.118,0-7.526,3.351-7.526,7.47
			c0,4.118,3.35,7.527,7.468,7.527s7.526-3.409,7.526-7.527C16.338,4.784,12.988,1.434,8.87,1.434z M9.749,14.674H7.933
			c-0.727,0-1.318-0.592-1.318-1.318s0.591-1.318,1.318-1.318h1.816c0.727,0,1.317,0.592,1.317,1.318S10.476,14.674,9.749,14.674z
			 M12.906,12.999c-0.172,0.171-0.449,0.171-0.621,0l-0.621-0.621c-0.172-0.172-0.172-0.45,0-0.622c0.172-0.171,0.449-0.171,0.621,0
			l0.297,0.297c0.631-0.754,0.993-1.733,1.082-2.71h-0.401c-0.243,0-0.439-0.197-0.439-0.439c0-0.243,0.196-0.439,0.439-0.439h0.417
			c-0.088-0.973-0.465-1.862-1.045-2.583l-2.69,3.786c-0.247,0.348-0.648,0.556-1.074,0.556c-0.727,0-1.318-0.592-1.318-1.318
			c0-0.426,0.208-0.828,0.555-1.075l3.784-2.691c-0.686-0.551-1.522-0.919-2.439-1.03C9.405,4.102,9.357,4.097,9.31,4.092v0.417
			c0,0.243-0.196,0.439-0.439,0.439c-0.243,0-0.439-0.196-0.439-0.439V4.092C7.428,4.183,6.454,4.581,5.722,5.191l0.296,0.296
			c0.171,0.172,0.171,0.45,0,0.621c-0.172,0.172-0.45,0.172-0.621,0L5.101,5.813C4.49,6.545,4.093,7.46,4.001,8.464h0.417
			c0.243,0,0.439,0.196,0.439,0.439c0,0.242-0.196,0.439-0.439,0.439H4.017c0.088,0.979,0.451,1.958,1.081,2.712l0.299-0.299
			c0.171-0.171,0.449-0.171,0.621,0c0.171,0.172,0.171,0.45,0,0.622l-0.623,0.623c-0.172,0.171-0.45,0.171-0.621,0
			c-1.079-1.079-1.673-2.572-1.673-4.098c0-3.142,2.615-5.712,5.77-5.712c3.144,0,5.711,2.568,5.711,5.712
			C14.581,10.427,13.986,11.919,12.906,12.999z"/>
	</g>
</g>
</svg>
