<?xml version="1.0" encoding="utf-8"?>
<!-- Generator: Adobe Illustrator 15.0.0, SVG Export Plug-In . SVG Version: 6.00 Build 0)  -->
<!DOCTYPE svg PUBLIC "-//W3C//DTD SVG 1.1//EN" "http://www.w3.org/Graphics/SVG/1.1/DTD/svg11.dtd">
<svg version="1.1" id="Capa_1" xmlns="http://www.w3.org/2000/svg" xmlns:xlink="http://www.w3.org/1999/xlink" x="0px" y="0px"
	 width="512px" height="512px" viewBox="0 0 512 512" enable-background="new 0 0 512 512" xml:space="preserve">
<g>
	<path fill="#FFFFFF" d="M256.276,216.655c-21.8,0.158-39.542-17.408-39.7-39.128c-0.177-21.8,17.31-39.522,39.128-39.7
		c3.269-0.02,6.38,0.453,9.413,1.181c22.765-17.821,52.52-41.058,55.907-43.48c5.868-4.155,12.603-4.647,17.388,0.138
		c4.727,4.884,4.234,12.269-0.196,17.448c-1.517,1.792-25.502,31.941-43.895,55.099c0.669,2.816,1.103,5.73,1.122,8.743
		C295.621,198.656,278.095,216.497,256.276,216.655z M0,413.538c0-10.89,8.822-19.692,19.692-19.692h177.23v-49.723
		c-68.726-24.398-118.154-89.896-118.154-166.892C78.769,79.518,158.287,0,256,0c97.732,0,177.23,79.518,177.23,177.231
		c0,76.997-49.428,142.494-118.153,166.892v49.723h177.23c10.89,0,19.692,8.803,19.692,19.692c0,10.891-8.803,19.692-19.692,19.692
		H19.692C8.822,433.23,0,424.429,0,413.538z M256,295.385c65.162,0,118.154-52.992,118.154-118.154
		c0-65.162-52.992-118.154-118.154-118.154c-65.162,0-118.154,52.992-118.154,118.154C137.846,242.393,190.838,295.385,256,295.385z
		 M492.308,472.615H19.692C8.822,472.615,0,481.418,0,492.308S8.822,512,19.692,512h472.615c10.89,0,19.692-8.803,19.692-19.692
		S503.197,472.615,492.308,472.615z"/>
</g>
</svg>
