<?xml version="1.0" encoding="utf-8"?>
<!-- Generator: Adobe Illustrator 15.1.0, SVG Export Plug-In . SVG Version: 6.00 Build 0)  -->
<!DOCTYPE svg PUBLIC "-//W3C//DTD SVG 1.1//EN" "http://www.w3.org/Graphics/SVG/1.1/DTD/svg11.dtd">
<svg version="1.1" id="Layer_1" xmlns="http://www.w3.org/2000/svg" xmlns:xlink="http://www.w3.org/1999/xlink" x="0px" y="0px"
	 width="18px" height="18px" viewBox="0 0 18 18" enable-background="new 0 0 18 18" xml:space="preserve">
<path fill="#13558F" d="M2.258,13.087l-0.016,3.09c0,0.176,0.063,0.35,0.19,0.477c0.127,0.125,0.286,0.188,0.46,0.188l0,0
	l3.077-0.015c0.174,0,0.333-0.063,0.46-0.19L17.058,6.018c0.254-0.253,0.254-0.666,0-0.935l-3.046-3.075
	c-0.254-0.253-0.666-0.253-0.936,0l-2.126,2.14l0,0l-8.501,8.48C2.338,12.753,2.258,12.912,2.258,13.087z M13.553,3.403l2.141,2.139
	l-1.205,1.205l-2.142-2.139L13.553,3.403z M3.575,13.371l7.836-7.829l2.142,2.14l-7.836,7.814l-2.158,0.015L3.575,13.371z"/>
</svg>
