<?xml version="1.0" encoding="utf-8"?>
<!-- Generator: Adobe Illustrator 15.1.0, SVG Export Plug-In . SVG Version: 6.00 Build 0)  -->
<!DOCTYPE svg PUBLIC "-//W3C//DTD SVG 1.1//EN" "http://www.w3.org/Graphics/SVG/1.1/DTD/svg11.dtd">
<svg version="1.1" id="Layer_1" xmlns="http://www.w3.org/2000/svg" xmlns:xlink="http://www.w3.org/1999/xlink" x="0px" y="0px"
	 width="18px" height="18px" viewBox="0 0 18 18" enable-background="new 0 0 18 18" xml:space="preserve">
<g>
	<g>
		<path fill="#FFFFFF" d="M8.748,10.647c0.1,0.09,0.225,0.134,0.351,0.134c0.124,0,0.249-0.044,0.35-0.134
			c0.128-0.114,3.107-2.813,3.107-5.613c0-1.938-1.551-3.515-3.457-3.515c-1.908,0-3.458,1.577-3.458,3.515
			C5.64,7.834,8.621,10.533,8.748,10.647z M9.099,4.116c0.494,0,0.896,0.412,0.896,0.918c0,0.507-0.401,0.919-0.896,0.919
			c-0.496,0-0.897-0.412-0.897-0.919C8.202,4.527,8.603,4.116,9.099,4.116z M15.741,10.646l-0.4-1.426
			c-0.064-0.231-0.272-0.391-0.51-0.391h-2.858c-0.104,0.157-0.212,0.313-0.327,0.471c-0.801,1.094-1.616,1.834-1.706,1.915
			c-0.232,0.208-0.531,0.322-0.841,0.322c-0.311,0-0.609-0.114-0.842-0.323c-0.09-0.08-0.905-0.82-1.706-1.914
			C6.435,9.141,6.326,8.985,6.223,8.828H3.364c-0.237,0-0.445,0.16-0.51,0.391L2.376,10.92l10.671,1.985L15.741,10.646z
			 M16.98,15.055l-1.023-3.646l-5.077,4.332h5.59c0.167,0,0.323-0.079,0.423-0.215C16.993,15.393,17.025,15.218,16.98,15.055z
			 M1.216,15.055c-0.045,0.163-0.014,0.338,0.087,0.472c0.1,0.136,0.257,0.215,0.423,0.215h2.066v-3.792l-1.62-0.301L1.216,15.055z
			 M4.535,12.088v3.653h5.19l2.585-2.206L4.535,12.088z"/>
	</g>
</g>
</svg>
