<?xml version="1.0" standalone="no"?>
<!-- Generator: Adobe Fireworks 10, Export SVG Extension by Aaron Beall (http://fireworks.abeall.com) . Version: 0.6.1  -->
<!DOCTYPE svg PUBLIC "-//W3C//DTD SVG 1.1//EN" "http://www.w3.org/Graphics/SVG/1.1/DTD/svg11.dtd">
<svg id="Untitled-Page%201" viewBox="0 0 36 45" style="background-color:#ffffff00" version="1.1"
	xmlns="http://www.w3.org/2000/svg" xmlns:xlink="http://www.w3.org/1999/xlink" xml:space="preserve"
	x="0px" y="0px" width="36px" height="45px"
>
	<g id="Layer%201">
		<path id="Shape%201" d="M 17.0169 0.3048 C 8.2206 0.6148 0.9131 7.5081 0.0688 16.3071 C -0.1036 18.0671 -0.0037 19.7722 0.3049 21.4043 L 0.3049 21.4043 C 0.3049 21.4043 0.3322 21.5958 0.4229 21.9606 C 0.6952 23.1823 1.1038 24.3677 1.6121 25.48 C 3.3822 29.6926 7.4763 36.741 16.6628 44.4095 C 17.2257 44.8837 18.0517 44.8837 18.6237 44.4095 C 27.8102 36.7502 31.9043 29.7019 33.6835 25.4711 C 34.2009 24.3586 34.6003 23.1823 34.8727 21.9514 C 34.9543 21.5958 34.9907 21.3952 34.9907 21.3952 L 34.9907 21.3952 C 35.1995 20.3011 35.3084 19.1794 35.3084 18.0305 C 35.3084 8.0188 27.0568 -0.0509 17.0169 0.3048 ZM 17.6432 26.8569 C 12.9047 26.8569 9.0648 23 9.0648 18.2403 C 9.0648 13.4807 12.9047 9.6235 17.6432 9.6235 C 22.3818 9.6235 26.2217 13.4807 26.2217 18.2403 C 26.2217 23 22.3818 26.8569 17.6432 26.8569 Z" fill="#29ad61"/>
		<path id="Shape%2028" d="M 17.9554 5.2261 C 24.7792 5.2261 30.3109 10.7591 30.3109 17.5845 C 30.3109 24.4097 24.7792 29.9424 17.9554 29.9424 C 11.1317 29.9424 5.5999 24.4097 5.5999 17.5845 C 5.5999 10.7591 11.1317 5.2261 17.9554 5.2261 Z" fill="#ffffff"/>
		<path id="Forma%201%20copy%202" d="M 24.9542 18.6049 C 24.7451 15.8861 23.4771 14.1823 22.3586 12.6788 C 21.3228 11.2871 20.4283 10.0848 20.4283 8.3118 C 20.4283 8.1695 20.3484 8.0393 20.2217 7.9739 C 20.0947 7.9085 19.942 7.9192 19.8265 8.0031 C 18.1465 9.2031 16.7449 11.2258 16.2553 13.1557 C 15.9154 14.4995 15.8704 16.0099 15.8641 17.0076 C 14.3127 16.6768 13.9612 14.3599 13.9576 14.3347 C 13.9401 14.2146 13.8666 14.11 13.7596 14.0529 C 13.6515 13.9964 13.5244 13.9924 13.4148 14.0464 C 13.3335 14.0859 11.418 15.0576 11.3066 18.9373 C 11.2987 19.0662 11.2984 19.1957 11.2984 19.3251 C 11.2984 23.0942 14.3703 26.1608 18.1458 26.1608 C 18.151 26.1613 18.1566 26.162 18.1611 26.1608 C 18.1626 26.1608 18.164 26.1608 18.1659 26.1608 C 21.9321 26.1501 24.9932 23.0876 24.9932 19.3251 C 24.9932 19.1356 24.9542 18.6049 24.9542 18.6049 ZM 18.1458 25.4014 C 16.8872 25.4014 15.8633 24.3125 15.8633 22.9741 C 15.8633 22.9285 15.863 22.8824 15.8663 22.8262 C 15.8815 22.2617 15.989 21.8763 16.1067 21.6201 C 16.3274 22.0933 16.7219 22.5284 17.3627 22.5284 C 17.573 22.5284 17.7431 22.3584 17.7431 22.1487 C 17.7431 21.6078 17.7543 20.9842 17.8892 20.4211 C 18.0092 19.9219 18.2959 19.3907 18.6593 18.965 C 18.8209 19.5178 19.1359 19.9648 19.4435 20.4014 C 19.8837 21.0259 20.3388 21.6716 20.4187 22.7726 C 20.4235 22.838 20.4283 22.9036 20.4283 22.9741 C 20.4283 24.3125 19.4045 25.4014 18.1458 25.4014 Z" fill="#29ad61"/>
	</g>
</svg>