<?xml version="1.0" encoding="utf-8"?>
<!-- Generator: Adobe Illustrator 15.1.0, SVG Export Plug-In . SVG Version: 6.00 Build 0)  -->
<!DOCTYPE svg PUBLIC "-//W3C//DTD SVG 1.1//EN" "http://www.w3.org/Graphics/SVG/1.1/DTD/svg11.dtd">
<svg version="1.1" id="Layer_1" xmlns="http://www.w3.org/2000/svg" xmlns:xlink="http://www.w3.org/1999/xlink" x="0px" y="0px"
	 width="20px" height="20px" viewBox="0 0 20 20" enable-background="new 0 0 20 20" xml:space="preserve">
<path fill="#13558F" d="M11.147,2.824c-4.16,0-7.542,3.247-7.644,7.289H1.205l3.442,3.738l3.441-3.738H5.416
	c0.101-3.01,2.627-5.42,5.731-5.42c3.168,0,5.735,2.51,5.735,5.607c0,3.096-2.567,5.607-5.735,5.607
	c-1.271,0-2.444-0.404-3.395-1.088L6.438,16.19c1.299,0.993,2.933,1.586,4.71,1.586c4.224,0,7.647-3.347,7.647-7.476
	S15.371,2.824,11.147,2.824z M10.467,6.289v4.276l2.813,2.74l0.926-0.903l-2.428-2.366V6.289H10.467z"/>
</svg>
