<?xml version="1.0" encoding="utf-8"?>
<!-- Generator: Adobe Illustrator 15.0.0, SVG Export Plug-In . SVG Version: 6.00 Build 0)  -->
<!DOCTYPE svg PUBLIC "-//W3C//DTD SVG 1.1//EN" "http://www.w3.org/Graphics/SVG/1.1/DTD/svg11.dtd">
<svg version="1.1" id="Layer_1" xmlns="http://www.w3.org/2000/svg" xmlns:xlink="http://www.w3.org/1999/xlink" x="0px" y="0px"
	 width="342.289px" height="353.25px" viewBox="0 0 342.289 353.25" enable-background="new 0 0 342.289 353.25"
	 xml:space="preserve">
<g>
	<g>
		<path fill="#FFFFFF" d="M81.095,178.534c0,0,62.836-62.874,62.836-115.358c0-34.9-28.13-63.176-62.836-63.176
			S18.259,28.276,18.259,63.176C18.259,118.638,81.095,178.534,81.095,178.534z M48.353,63.176c0-18.2,14.661-32.937,32.742-32.937
			s32.753,14.737,32.753,32.937c0,18.173-14.672,32.904-32.753,32.904S48.353,81.349,48.353,63.176z M313.355,85.427l-5.114,1.629
			l-27.305,2.449l-7.682,12.363l-5.588-1.791L245.95,80.41l-3.172-10.228l-4.186-10.923l-13.647-12.32l-16.085-3.155l-0.367,7.406
			l15.762,15.471l7.714,9.132l-8.685,4.563l-7.088-2.104l-10.572-4.423l0.366-8.598l-13.895-5.745l-4.618,20.163l-13.997,3.193
			l1.392,11.263l18.216,3.527l3.15-17.984l15.049,2.244l7.002,4.116h11.22l7.692,15.465l20.368,20.789l-1.479,8.075l-16.441-2.114
			l-28.384,14.413l-20.433,24.646l-2.654,10.907h-7.347l-13.668-6.322l-13.28,6.322l3.307,14.1l5.783-6.721l10.146-0.313
			l-0.707,12.644l8.42,2.471l8.404,9.493l13.712-3.873l15.687,2.481l18.199,4.931l9.095,1.057l15.405,17.585l29.743,17.596
			l-19.235,36.95l-20.304,9.493l-7.702,21.102l-29.398,19.731l-3.128,11.382c75.086-18.188,130.979-85.993,130.979-167.109
			C342.321,145.728,331.63,112.78,313.355,85.427z M190.854,271.098l-12.471-23.238l11.446-23.982l-11.446-3.463l-12.844-12.956
			l-28.465-6.408l-9.45-19.894v11.813h-4.175l-18.065-24.629c-8.819,10.616-15.513,17.38-16.344,18.21l-7.756,7.757l-7.924-7.563
			c-2.039-1.963-38.455-37.058-56.455-79.698C6.16,129.502,0,154.574,0,181.156C0,276.189,76.629,353.25,171.166,353.25
			c7.261,0,14.424-0.637,21.469-1.511l-1.78-20.843c0,0,7.865-30.951,7.865-31.998C198.72,297.853,190.854,271.098,190.854,271.098z
			 M157.638,42.112l12.595,2.087l30.569-2.88l8.414-9.321l11.878-7.978l16.798,2.546l6.128-0.928
			c-22.127-10.47-46.778-16.527-72.864-16.527c-12.19,0-24.02,1.429-35.482,3.851c8.906,9.78,15.314,21.884,18.038,35.353
			L157.638,42.112z M178.384,26.183l17.509-9.667l11.209,6.505l-16.247,12.444l-15.508,1.575l-6.991-4.553L178.384,26.183z"/>
	</g>
</g>
</svg>
