<svg xmlns="http://www.w3.org/2000/svg" viewBox="-4902 -599 54.348 47.583"><g id="Group_930" data-name="Group 930" transform="translate(-4902 -599)"><path id="Path_587" data-name="Path 587" class="cls-1" d="M0,58.8H13.067v3.989H9.309v9.6H3.874v-9.6H0V58.8" transform="translate(0 -24.804)"></path><path id="Path_588" data-name="Path 588" class="cls-1" d="M28.279,64.293,25.5,72.387H20.3L25.446,58.8h5.666l5.261,13.587H31.054l-2.775-8.094" transform="translate(-8.563 -24.804)"></path><path id="Path_589" data-name="Path 589" class="cls-1" d="M45.9,58.8H59.024v3.989H55.266v9.6H49.774v-9.6H45.9V58.8" transform="translate(-19.362 -24.804)"></path><path id="Path_590" data-name="Path 590" class="cls-1" d="M74.179,64.293l-2.717,8.094H66.2L71.346,58.8h5.666l5.261,13.587H77.012l-2.833-8.094" transform="translate(-27.925 -24.804)"></path><path id="Path_591" data-name="Path 591" class="cls-1" d="M52.306,9.135A10.991,10.991,0,0,0,50.4,6.418,19.14,19.14,0,0,0,43,1.735,28.184,28.184,0,0,0,33,0a28.092,28.092,0,0,0-9.945,1.735,18.485,18.485,0,0,0-7.343,4.683A10.82,10.82,0,0,0,13.8,9.193,85.5,85.5,0,0,1,30.625,6.88,1.536,1.536,0,0,1,31.9,7.4c.347.4.289,1.908.289,2.6l-.231,17.172h2.081L33.863,9.887a6.22,6.22,0,0,1,.289-2.6,1.536,1.536,0,0,1,1.272-.52A90.255,90.255,0,0,1,52.306,9.135" transform="translate(-5.821 0)"></path><path id="Path_592" data-name="Path 592" class="cls-1" d="M69.8,18.422a70.969,70.969,0,0,0-13.3-1.735c-3.3-.173-3.353.983-3.006,3.238,0,.116.058.289.058.52,1.1,6.533,2.486,12.142,2.717,13.124,8.037-1.85,13.818-6.938,13.818-12.893a9.251,9.251,0,0,0-.289-2.255" transform="translate(-22.507 -7.032)"></path><path id="Path_593" data-name="Path 593" class="cls-1" d="M28.394,19.925c.347-2.255.289-3.411-3.006-3.238a76.185,76.185,0,0,0-13.3,1.735,9.55,9.55,0,0,0-.289,2.2,10.614,10.614,0,0,0,3.006,7.227,18.485,18.485,0,0,0,7.343,4.683,23.03,23.03,0,0,0,3.411.983c.231-.867,1.619-6.649,2.717-13.3a.374.374,0,0,0,.116-.289" transform="translate(-4.978 -7.032)"></path></g></svg>