<?xml version="1.0" encoding="utf-8"?>
<!-- Generator: Adobe Illustrator 15.1.0, SVG Export Plug-In . SVG Version: 6.00 Build 0)  -->
<!DOCTYPE svg PUBLIC "-//W3C//DTD SVG 1.1//EN" "http://www.w3.org/Graphics/SVG/1.1/DTD/svg11.dtd">
<svg version="1.1" id="Layer_1" xmlns="http://www.w3.org/2000/svg" xmlns:xlink="http://www.w3.org/1999/xlink" x="0px" y="0px"
	 width="18px" height="18px" viewBox="0 0 18 18" enable-background="new 0 0 18 18" xml:space="preserve">
<g>
	<g>
		<path fill="#464646" d="M14.285,7.866h-0.259v-2.3c0-2.972-2.418-5.394-5.395-5.394c-2.974,0-5.394,2.418-5.394,5.394
			c0,0.275,0.219,0.494,0.493,0.494s0.494-0.219,0.494-0.494c0-2.428,1.976-4.406,4.407-4.406c2.429,0,4.406,1.974,4.406,4.406v2.3
			H2.982c-0.527,0-0.954,0.428-0.954,0.955v6.147c0,1.576,1.284,2.859,2.859,2.859h7.494c1.575,0,2.858-1.283,2.858-2.859V8.821
			C15.239,8.294,14.813,7.866,14.285,7.866z M14.253,14.969c0,1.031-0.838,1.873-1.872,1.873H4.89c-1.031,0-1.872-0.838-1.872-1.873
			V8.854h11.234V14.969L14.253,14.969z"/>
		<path fill="#464646" d="M8.636,14.768c1.02,0,1.847-0.83,1.847-1.848c0-1.02-0.831-1.848-1.847-1.848
			c-1.02,0-1.847,0.832-1.847,1.848C6.789,13.938,7.616,14.768,8.636,14.768z M8.636,12.059c0.475,0,0.859,0.387,0.859,0.859
			c0,0.471-0.384,0.863-0.859,0.863s-0.859-0.389-0.859-0.861C7.776,12.449,8.161,12.059,8.636,12.059z"/>
	</g>
</g>
</svg>
