<?xml version="1.0" standalone="no"?>
<!-- Generator: Adobe Fireworks 10, Export SVG Extension by Aaron Beall (http://fireworks.abeall.com) . Version: 0.6.1  -->
<!DOCTYPE svg PUBLIC "-//W3C//DTD SVG 1.1//EN" "http://www.w3.org/Graphics/SVG/1.1/DTD/svg11.dtd">
<svg id="Untitled-Page%201" viewBox="0 0 36 45" style="background-color:#ffffff00" version="1.1"
	xmlns="http://www.w3.org/2000/svg" xmlns:xlink="http://www.w3.org/1999/xlink" xml:space="preserve"
	x="0px" y="0px" width="36px" height="45px"
>
	<g id="Layer%201">
		<path id="Shape%201%20copy%2026" d="M 17.3404 -0.0508 C 8.5442 0.2593 1.2366 7.1527 0.3924 15.9517 C 0.2199 17.7115 0.3198 19.4167 0.6285 21.049 L 0.6285 21.049 C 0.6285 21.049 0.6557 21.2403 0.7464 21.605 C 1.0188 22.8268 1.4273 24.0123 1.9356 25.1246 C 3.7057 29.3372 7.7998 36.3857 16.9864 44.0539 C 17.5493 44.5282 18.3753 44.5282 18.9472 44.0539 C 28.1338 36.3948 32.2278 29.3464 34.007 25.1155 C 34.5245 24.0031 34.9239 22.8268 35.1962 21.5959 C 35.2779 21.2403 35.3143 21.0397 35.3143 21.0397 L 35.3143 21.0397 C 35.523 19.9454 35.632 18.8239 35.632 17.675 C 35.632 7.6633 27.3803 -0.4063 17.3404 -0.0508 ZM 17.9668 26.5015 C 13.2283 26.5015 9.3884 22.6443 9.3884 17.8846 C 9.3884 13.1249 13.2283 9.2681 17.9668 9.2681 C 22.7054 9.2681 26.5452 13.1249 26.5452 17.8846 C 26.5452 22.6443 22.7054 26.5015 17.9668 26.5015 Z" fill="#f34f4f"/>
		<path id="Shape%2028%20copy%2013" d="M 18.279 4.8706 C 25.1027 4.8706 30.6344 10.4037 30.6344 17.2288 C 30.6344 24.054 25.1027 29.5869 18.279 29.5869 C 11.4552 29.5869 5.9235 24.054 5.9235 17.2288 C 5.9235 10.4037 11.4552 4.8706 18.279 4.8706 Z" fill="#ffffff"/>
		<path id="Forma%201%20copy%2022" d="M 25.2778 18.2495 C 25.0686 15.5307 23.8007 13.8268 22.6821 12.3234 C 21.6464 10.9314 20.7518 9.7294 20.7518 7.9564 C 20.7518 7.814 20.672 7.6838 20.5453 7.6185 C 20.4182 7.5529 20.2655 7.5637 20.15 7.6473 C 18.4701 8.8475 17.0685 10.8703 16.5788 12.8003 C 16.2389 14.1439 16.1939 15.6545 16.1877 16.6522 C 14.6363 16.3212 14.2848 14.0044 14.2811 13.9791 C 14.2636 13.8589 14.1901 13.7545 14.0832 13.6974 C 13.975 13.6411 13.848 13.6368 13.7384 13.691 C 13.657 13.7302 11.7416 14.7021 11.6302 18.5817 C 11.6223 18.7107 11.6219 18.8402 11.6219 18.9696 C 11.6219 22.7386 14.6938 25.8054 18.4694 25.8054 C 18.4746 25.8059 18.4802 25.8066 18.4846 25.8054 C 18.4861 25.8054 18.4876 25.8054 18.4894 25.8054 C 22.2556 25.7947 25.3168 22.7322 25.3168 18.9696 C 25.3168 18.78 25.2778 18.2495 25.2778 18.2495 ZM 18.4694 25.046 C 17.2107 25.046 16.1869 23.9572 16.1869 22.6187 C 16.1869 22.5729 16.1866 22.527 16.1898 22.4706 C 16.205 21.906 16.3125 21.5208 16.4302 21.2644 C 16.6509 21.7377 17.0454 22.1727 17.6863 22.1727 C 17.8965 22.1727 18.0667 22.0031 18.0667 21.793 C 18.0667 21.2524 18.0778 20.6285 18.2127 20.0656 C 18.3327 19.5663 18.6194 19.0351 18.9828 18.6094 C 19.1444 19.1622 19.4594 19.6093 19.7671 20.0457 C 20.2073 20.6704 20.6623 21.316 20.7422 22.4172 C 20.7471 22.4825 20.7519 22.5482 20.7519 22.6187 C 20.7518 23.9572 19.728 25.046 18.4694 25.046 Z" fill="#f34f4f"/>
	</g>
</svg>