<?xml version="1.0" encoding="utf-8"?>
<!-- Generator: Adobe Illustrator 15.1.0, SVG Export Plug-In . SVG Version: 6.00 Build 0)  -->
<!DOCTYPE svg PUBLIC "-//W3C//DTD SVG 1.1//EN" "http://www.w3.org/Graphics/SVG/1.1/DTD/svg11.dtd">
<svg version="1.1" id="Layer_1" xmlns="http://www.w3.org/2000/svg" xmlns:xlink="http://www.w3.org/1999/xlink" x="0px" y="0px"
	 width="18px" height="18px" viewBox="0 0 18 18" enable-background="new 0 0 18 18" xml:space="preserve">
<g>
	<g>
		<path fill="#FFFFFF" d="M9.668,7.738c-0.24,0-0.445-0.086-0.613-0.258c-0.168-0.171-0.253-0.38-0.253-0.625V1.854H3.893
			c-0.241,0-0.445,0.086-0.614,0.258C3.111,2.284,3.027,2.492,3.027,2.737v12.354c0,0.245,0.084,0.454,0.252,0.625
			c0.168,0.172,0.373,0.258,0.614,0.258h9.818c0.24,0,0.444-0.086,0.613-0.258c0.168-0.171,0.253-0.38,0.253-0.625V7.738H9.668z
			 M12.267,13.327c0,0.086-0.027,0.156-0.081,0.211c-0.054,0.056-0.123,0.083-0.207,0.083H5.625c-0.084,0-0.153-0.027-0.208-0.083
			c-0.054-0.055-0.081-0.125-0.081-0.211v-0.588c0-0.087,0.027-0.157,0.081-0.212s0.124-0.083,0.208-0.083h6.353
			c0.084,0,0.153,0.028,0.207,0.083s0.081,0.125,0.081,0.212V13.327z M12.267,10.974c0,0.086-0.027,0.156-0.081,0.212
			c-0.054,0.055-0.123,0.083-0.207,0.083H5.625c-0.084,0-0.153-0.028-0.208-0.083c-0.054-0.056-0.081-0.126-0.081-0.212v-0.589
			c0-0.085,0.027-0.155,0.081-0.211c0.054-0.055,0.124-0.083,0.208-0.083h6.353c0.084,0,0.153,0.028,0.207,0.083
			c0.054,0.056,0.081,0.126,0.081,0.211V10.974z M13.963,5.348L11.147,2.48c-0.301-0.307-0.697-0.506-1.19-0.598v4.679h4.593
			C14.459,6.059,14.264,5.654,13.963,5.348z"/>
	</g>
</g>
</svg>
