<?xml version="1.0" encoding="utf-8"?>
<!-- Generator: Adobe Illustrator 15.1.0, SVG Export Plug-In . SVG Version: 6.00 Build 0)  -->
<!DOCTYPE svg PUBLIC "-//W3C//DTD SVG 1.1//EN" "http://www.w3.org/Graphics/SVG/1.1/DTD/svg11.dtd">
<svg version="1.1" id="Layer_1" xmlns="http://www.w3.org/2000/svg" xmlns:xlink="http://www.w3.org/1999/xlink" x="0px" y="0px"
	 width="18px" height="18px" viewBox="0 0 18 18" enable-background="new 0 0 18 18" xml:space="preserve">
<path fill="#FFFFFF" d="M13.431,12.646L11,11.431c-0.229-0.115-0.371-0.346-0.371-0.602v-0.86c0.058-0.071,0.119-0.152,0.183-0.242
	c0.315-0.445,0.568-0.941,0.752-1.476c0.358-0.165,0.592-0.52,0.592-0.92V6.313c0-0.245-0.092-0.482-0.255-0.668V4.292
	c0.015-0.14,0.07-0.973-0.532-1.66c-0.522-0.596-1.37-0.898-2.521-0.898S6.849,2.035,6.327,2.631
	C5.724,3.318,5.78,4.151,5.794,4.292v1.354C5.631,5.831,5.54,6.068,5.54,6.313v1.018c0,0.31,0.141,0.599,0.381,0.791
	C6.154,9.045,6.642,9.74,6.812,9.963v0.842c0,0.247-0.134,0.473-0.351,0.591l-2.27,1.238c-0.738,0.402-1.197,1.175-1.197,2.016
	v0.823C2.995,16.681,6.823,17,8.848,17s5.852-0.319,5.852-1.527v-0.774C14.699,13.824,14.214,13.037,13.431,12.646z"/>
</svg>
