<?xml version="1.0" encoding="utf-8"?>
<!-- Generator: Adobe Illustrator 15.1.0, SVG Export Plug-In . SVG Version: 6.00 Build 0)  -->
<!DOCTYPE svg PUBLIC "-//W3C//DTD SVG 1.1//EN" "http://www.w3.org/Graphics/SVG/1.1/DTD/svg11.dtd">
<svg version="1.1" id="Layer_1" xmlns="http://www.w3.org/2000/svg" xmlns:xlink="http://www.w3.org/1999/xlink" x="0px" y="0px"
	 width="18px" height="18px" viewBox="0 0 18 18" enable-background="new 0 0 18 18" xml:space="preserve">
<path fill="#FFFFFF" d="M16.322,8.6c-0.023-0.208-0.266-0.363-0.474-0.363c-0.676,0-1.274-0.397-1.526-1.011
	c-0.257-0.629-0.091-1.362,0.412-1.825c0.158-0.145,0.178-0.388,0.045-0.556c-0.346-0.439-0.738-0.836-1.167-1.18
	c-0.168-0.135-0.414-0.116-0.561,0.045c-0.438,0.487-1.228,0.668-1.838,0.414c-0.634-0.268-1.034-0.911-0.995-1.602
	c0.014-0.217-0.146-0.406-0.361-0.431C9.307,2.027,8.752,2.025,8.2,2.086C7.986,2.11,7.828,2.294,7.835,2.508
	c0.024,0.684-0.381,1.316-1.009,1.574C6.224,4.329,5.44,4.149,5.002,3.667C4.857,3.508,4.615,3.488,4.446,3.62
	C4.004,3.967,3.603,4.364,3.254,4.8C3.118,4.969,3.138,5.215,3.298,5.361C3.811,5.826,3.977,6.565,3.71,7.202
	C3.456,7.808,2.827,8.199,2.107,8.199c-0.234-0.007-0.4,0.149-0.426,0.362C1.616,9.115,1.616,9.68,1.678,10.238
	c0.023,0.209,0.272,0.363,0.483,0.363c0.642-0.017,1.257,0.381,1.516,1.011c0.257,0.629,0.092,1.362-0.412,1.824
	c-0.158,0.146-0.178,0.388-0.045,0.557c0.342,0.437,0.735,0.833,1.166,1.181c0.168,0.136,0.414,0.117,0.561-0.045
	c0.441-0.488,1.229-0.669,1.837-0.413c0.636,0.266,1.036,0.91,0.997,1.601c-0.013,0.218,0.146,0.406,0.361,0.432
	c0.282,0.032,0.565,0.049,0.849,0.049c0.27,0,0.539-0.015,0.809-0.045c0.214-0.023,0.372-0.208,0.365-0.422
	c-0.025-0.685,0.381-1.316,1.008-1.574c0.606-0.247,1.387-0.066,1.825,0.416c0.146,0.159,0.386,0.178,0.556,0.047
	c0.44-0.347,0.842-0.743,1.192-1.18c0.136-0.17,0.116-0.416-0.044-0.562c-0.514-0.465-0.68-1.204-0.413-1.84
	c0.25-0.599,0.855-1,1.507-1l0.092,0.002c0.211,0.017,0.405-0.146,0.431-0.361C16.384,9.723,16.385,9.159,16.322,8.6z M9.012,11.896
	c-1.355,0-2.458-1.104-2.458-2.46s1.103-2.461,2.458-2.461s2.457,1.104,2.457,2.461S10.367,11.896,9.012,11.896z"/>
</svg>
