<?xml version="1.0" encoding="utf-8"?>
<!-- Generator: Adobe Illustrator 15.1.0, SVG Export Plug-In . SVG Version: 6.00 Build 0)  -->
<!DOCTYPE svg PUBLIC "-//W3C//DTD SVG 1.1//EN" "http://www.w3.org/Graphics/SVG/1.1/DTD/svg11.dtd">
<svg version="1.1" id="Layer_1" xmlns="http://www.w3.org/2000/svg" xmlns:xlink="http://www.w3.org/1999/xlink" x="0px" y="0px"
	 width="18px" height="18px" viewBox="0 0 18 18" enable-background="new 0 0 18 18" xml:space="preserve">
<path fill="#FFFFFF" d="M8.728,1.386C5.722,1.492,3.224,3.829,2.936,6.813C2.876,7.409,2.911,7.988,3.016,8.541l0,0
	c0,0,0.009,0.065,0.041,0.188c0.093,0.414,0.232,0.816,0.406,1.193c0.605,1.429,2.004,3.818,5.144,6.419
	c0.192,0.16,0.475,0.16,0.67,0c3.14-2.598,4.539-4.987,5.147-6.422c0.177-0.377,0.313-0.776,0.406-1.193
	c0.028-0.121,0.04-0.188,0.04-0.188l0,0c0.072-0.371,0.109-0.751,0.109-1.141C14.98,4.002,12.16,1.266,8.728,1.386z M8.942,10.39
	c-1.62,0-2.932-1.308-2.932-2.921c0-1.614,1.313-2.922,2.932-2.922c1.619,0,2.932,1.308,2.932,2.922
	C11.874,9.082,10.562,10.39,8.942,10.39z"/>
</svg>
