<?xml version="1.0" encoding="utf-8"?>
<!-- Generator: Adobe Illustrator 15.1.0, SVG Export Plug-In . SVG Version: 6.00 Build 0)  -->
<!DOCTYPE svg PUBLIC "-//W3C//DTD SVG 1.1//EN" "http://www.w3.org/Graphics/SVG/1.1/DTD/svg11.dtd">
<svg version="1.1" id="Layer_1" xmlns="http://www.w3.org/2000/svg" xmlns:xlink="http://www.w3.org/1999/xlink" x="0px" y="0px"
	 width="20px" height="20px" viewBox="0 0 20 20" enable-background="new 0 0 20 20" xml:space="preserve">
<g>
	<g>
		<path fill="#13558F" d="M18.755,10.202c-0.006-0.015-0.013-0.029-0.02-0.044c-0.77-1.586-1.967-2.928-3.463-3.88
			C13.735,5.3,11.953,4.783,10.12,4.783c-1.834,0-3.616,0.517-5.153,1.496c-1.49,0.949-2.685,2.284-3.454,3.863
			c-0.086,0.164-0.093,0.362-0.009,0.535c0.77,1.587,1.967,2.929,3.463,3.881c1.538,0.979,3.319,1.496,5.154,1.496
			c1.833,0,3.617-0.518,5.153-1.496c1.496-0.952,2.693-2.294,3.463-3.88C18.808,10.528,18.813,10.356,18.755,10.202z M10.12,14.858
			c-3.094,0-5.967-1.733-7.401-4.441C4.152,7.71,7.026,5.976,10.12,5.976c3.093,0,5.966,1.734,7.401,4.441
			C16.086,13.125,13.213,14.858,10.12,14.858z M10.119,7.798c-1.455,0-2.639,1.175-2.639,2.62c0,1.445,1.184,2.62,2.639,2.62
			s2.64-1.175,2.64-2.62C12.759,8.973,11.574,7.798,10.119,7.798z M10.119,11.843c-0.792,0-1.436-0.64-1.436-1.425
			c0-0.786,0.644-1.426,1.436-1.426c0.792,0,1.438,0.64,1.438,1.426C11.557,11.203,10.912,11.843,10.119,11.843z"/>
	</g>
</g>
</svg>
