<?xml version="1.0" encoding="utf-8"?>
<!-- Generator: Adobe Illustrator 15.1.0, SVG Export Plug-In . SVG Version: 6.00 Build 0)  -->
<!DOCTYPE svg PUBLIC "-//W3C//DTD SVG 1.1//EN" "http://www.w3.org/Graphics/SVG/1.1/DTD/svg11.dtd">
<svg version="1.1" id="Layer_1" xmlns="http://www.w3.org/2000/svg" xmlns:xlink="http://www.w3.org/1999/xlink" x="0px" y="0px"
	 width="18px" height="18px" viewBox="0 0 18 18" enable-background="new 0 0 18 18" xml:space="preserve">
<path fill="#FFFFFF" d="M9.296,17.677c3.51,0,6.354-2.844,6.354-6.354c0-3.07-4.194-6.853-5.83-10.431
	C9.621,0.455,8.993,0.458,8.797,0.896c-1.585,3.556-5.856,7.36-5.856,10.426C2.941,14.833,5.786,17.677,9.296,17.677z M5.77,10.576
	c0.551,0,0.998,0.446,0.998,0.997c0,0.963,0.782,1.744,1.744,1.744c0.551,0,0.997,0.446,0.997,0.998c0,0.55-0.446,0.996-0.997,0.996
	c-2.062,0-3.739-1.677-3.739-3.738C4.773,11.022,5.22,10.576,5.77,10.576z"/>
</svg>
