<?xml version="1.0" standalone="no"?>
<!-- Generator: Adobe Fireworks 10, Export SVG Extension by Aaron Beall (http://fireworks.abeall.com) . Version: 0.6.1  -->
<!DOCTYPE svg PUBLIC "-//W3C//DTD SVG 1.1//EN" "http://www.w3.org/Graphics/SVG/1.1/DTD/svg11.dtd">
<svg id="Untitled-Page%201" viewBox="0 0 36 45" style="background-color:#ffffff00" version="1.1"
	xmlns="http://www.w3.org/2000/svg" xmlns:xlink="http://www.w3.org/1999/xlink" xml:space="preserve"
	x="0px" y="0px" width="36px" height="45px"
>
	<g id="Layer%201">
		<path id="Shape%201%20copy%2033" d="M 17.811 0.5212 C 9.0147 0.8311 1.7072 7.7246 0.863 16.5237 C 0.6905 18.2835 0.7903 19.9885 1.099 21.6207 L 1.099 21.6207 C 1.099 21.6207 1.1262 21.8122 1.217 22.1768 C 1.4894 23.3987 1.8978 24.5841 2.4062 25.6965 C 4.1763 29.909 8.2704 36.9576 17.457 44.6259 C 18.0198 45.1001 18.8459 45.1001 19.4177 44.6259 C 28.6043 36.9665 32.6984 29.9183 34.4777 25.6875 C 34.9951 24.575 35.3945 23.3987 35.6667 22.1678 C 35.7485 21.8122 35.7848 21.6116 35.7848 21.6116 L 35.7848 21.6116 C 35.9937 20.5174 36.1026 19.3958 36.1026 18.247 C 36.1025 8.2352 27.8509 0.1655 17.811 0.5212 ZM 18.4374 27.0734 C 13.6989 27.0734 9.859 23.2164 9.859 18.4567 C 9.859 13.6971 13.6989 9.8401 18.4374 9.8401 C 23.1759 9.8401 27.0157 13.6971 27.0157 18.4567 C 27.0157 23.2164 23.1759 27.0734 18.4374 27.0734 Z" fill="#ffb900"/>
		<path id="Shape%2028%20copy%2020" d="M 18.7495 5.4425 C 25.5733 5.4425 31.105 10.9755 31.105 17.8009 C 31.105 24.626 25.5733 30.1589 18.7495 30.1589 C 11.9258 30.1589 6.394 24.626 6.394 17.8009 C 6.394 10.9755 11.9258 5.4425 18.7495 5.4425 Z" fill="#ffffff"/>
		<path id="Forma%201%20copy%2029" d="M 25.7484 18.8214 C 25.5392 16.1025 24.2713 14.3987 23.1527 12.8953 C 22.117 11.5034 21.2224 10.3013 21.2224 8.5282 C 21.2224 8.3859 21.1425 8.2556 21.0159 8.1904 C 20.8888 8.1249 20.7361 8.1356 20.6206 8.2195 C 18.9407 9.4194 17.539 11.4422 17.0494 13.3722 C 16.7095 14.7158 16.6645 16.2264 16.6582 17.224 C 15.1068 16.8932 14.7554 14.5764 14.7517 14.5512 C 14.7343 14.431 14.6607 14.3264 14.5537 14.2693 C 14.4456 14.2129 14.3185 14.2088 14.2089 14.2629 C 14.1276 14.3023 12.2122 15.2739 12.1007 19.1535 C 12.0929 19.2827 12.0925 19.4122 12.0925 19.5416 C 12.0925 23.3106 15.1644 26.3772 18.9399 26.3772 C 18.9451 26.3777 18.9507 26.3784 18.9551 26.3772 C 18.9567 26.3772 18.9581 26.3772 18.96 26.3772 C 22.7263 26.3668 25.7874 23.304 25.7874 19.5416 C 25.7874 19.3519 25.7484 18.8214 25.7484 18.8214 ZM 18.9399 25.6178 C 17.6813 25.6178 16.6575 24.5289 16.6575 23.1905 C 16.6575 23.1449 16.6571 23.0988 16.6604 23.0425 C 16.6757 22.4781 16.783 22.0927 16.9008 21.8364 C 17.1215 22.3097 17.516 22.7448 18.1568 22.7448 C 18.3671 22.7448 18.5373 22.5748 18.5373 22.3651 C 18.5373 21.8243 18.5485 21.2005 18.6832 20.6375 C 18.8033 20.1383 19.0901 19.6072 19.4534 19.1815 C 19.6149 19.7341 19.9301 20.1813 20.2376 20.6177 C 20.6779 21.2422 21.1329 21.888 21.2128 22.989 C 21.2176 23.0543 21.2225 23.12 21.2225 23.1905 C 21.2224 24.5289 20.1986 25.6178 18.9399 25.6178 Z" fill="#ffb900"/>
	</g>
</svg>