<?xml version="1.0" encoding="utf-8"?>
<!-- Generator: Adobe Illustrator 15.0.0, SVG Export Plug-In . SVG Version: 6.00 Build 0)  -->
<!DOCTYPE svg PUBLIC "-//W3C//DTD SVG 1.1//EN" "http://www.w3.org/Graphics/SVG/1.1/DTD/svg11.dtd">
<svg version="1.1" id="Layer_1" xmlns="http://www.w3.org/2000/svg" xmlns:xlink="http://www.w3.org/1999/xlink" x="0px" y="0px"
	 width="404px" height="502.048px" viewBox="0 0 404 502.048" enable-background="new 0 0 404 502.048" xml:space="preserve">
<g>
	<g>
		<path fill="#FFFFFF" d="M133.925,242.725C120.871,258.21,113,278.208,113,300.048c0,49.153,39.847,89,89,89s89-39.847,89-89
			c0-21.644-7.729-41.48-20.573-56.908l-10.771,15.698c8.214,11.577,13.06,25.713,13.06,40.989
			c0,39.177-31.759,70.936-70.935,70.936c-39.177,0-70.936-31.759-70.936-70.936c0-15.568,5.029-29.956,13.533-41.654
			L133.925,242.725z M335.435,148.408l-23.396,34.094c31.068,29.352,50.461,70.933,50.461,117.047c0,88.918-72.082,161-161,161
			s-161-72.082-161-161c0-46.783,19.961-88.898,51.822-118.314l-22.79-33.685C26.934,184.584,0,239.17,0,300.048
			c0,111.562,90.438,202,202,202s202-90.438,202-202C404,239.634,377.47,185.425,335.435,148.408z M202.998,300.042l80.271-116.939
			c30.112-40.486,25.754-107.038-9.319-142.41c-18.951-19.116-44.15-29.645-70.951-29.645c-26.806,0-52,10.529-70.952,29.645
			c-35.073,35.372-39.431,101.924-9.439,142.246L202.998,300.042z M203.924,74.382c20.192,0,36.627,16.578,36.627,36.944
			s-16.435,36.944-36.627,36.944c-20.191,0-36.626-16.578-36.626-36.944S183.732,74.382,203.924,74.382z"/>
	</g>
</g>
</svg>
